# xmcd CD database file
#
# Track frame offsets:
#	150
#	20162
#	36559
#	52223
#	69856
#	87397
#	104834
#	119859
#	133211
#	145227
#	160219
#	174735
#	188495
#	205107
#	221106
#
# Disc length: 3126 seconds
#
# Revision: 22
# Processed by: cddbd v1.5.2PL0 Copyright (c) Steve Scherf et al.
# Submitted via: CDex 1.70beta2
#
DISCID=f50c340f
DTITLE=Johnny Cash - American IV: The Man Comes Around
DYEAR=2002
DGENRE=Country
TTITLE0=The Man Comes Around
TTITLE1=Hurt
TTITLE2=Give My Love to Rose
TTITLE3=Bridge Over Troubled Water (feat. Fiona Apple)
TTITLE4=I Hung My Head
TTITLE5=First Time Ever I Saw Your Face
TTITLE6=Personal Jesus
TTITLE7=In My Life
TTITLE8=Sam Hall
TTITLE9=Danny Boy
TTITLE10=Desperado (feat. Don Henley)
TTITLE11=I'm So Lonesome I Could Cry (feat. Nick Cave)
TTITLE12=Tear Stained Letter
TTITLE13=Streets of Laredo
TTITLE14=We'll Meet Again
EXTD=YEAR: 2002
EXTT0=
EXTT1=
EXTT2=
EXTT3=
EXTT4=
EXTT5=
EXTT6=
EXTT7=
EXTT8=
EXTT9=
EXTT10=
EXTT11=
EXTT12=
EXTT13=
EXTT14=
PLAYORDER=
